<mxfile host="app.diagrams.net" modified="2021-12-07T12:18:45.920Z" agent="5.0 (Macintosh; Intel Mac OS X 10_15_7) AppleWebKit/605.1.15 (KHTML, like Gecko) Version/14.1.2 Safari/605.1.15" etag="PT2E3671AYl4mbazL5Yu" version="15.9.1" type="github" pages="3">
  <diagram id="BbLknlgu5Jx64-4c73IF" name="Caner">
    <mxGraphModel dx="1657" dy="654" grid="1" gridSize="10" guides="1" tooltips="1" connect="1" arrows="1" fold="1" page="1" pageScale="1" pageWidth="827" pageHeight="1169" math="0" shadow="0">
      <root>
        <mxCell id="0" />
        <mxCell id="1" parent="0" />
        <mxCell id="DoLtlblg7k8J_3llBcIC-2" value="" style="rounded=0;whiteSpace=wrap;html=1;" vertex="1" parent="1">
          <mxGeometry y="100" width="540" height="530" as="geometry" />
        </mxCell>
        <mxCell id="9wcVYEtqLnW9-rk7Md1K-1" value="Einkommen" style="strokeWidth=1;shadow=0;dashed=0;align=left;html=1;shape=mxgraph.mockup.forms.anchor;align=right;spacingRight=2;fontColor=#666666;" vertex="1" parent="1">
          <mxGeometry x="-11" y="201" width="100" height="18" as="geometry" />
        </mxCell>
        <mxCell id="9wcVYEtqLnW9-rk7Md1K-3" value="Kinder" style="strokeWidth=1;shadow=0;dashed=0;align=left;html=1;shape=mxgraph.mockup.forms.anchor;align=right;spacingRight=2;fontColor=#666666;" vertex="1" parent="1">
          <mxGeometry x="10" y="277" width="50" height="18" as="geometry" />
        </mxCell>
        <mxCell id="9wcVYEtqLnW9-rk7Md1K-4" value="0,00" style="strokeWidth=1;shadow=0;dashed=0;align=right;html=1;shape=mxgraph.mockup.forms.rrect;fillColor=#ffffff;rSize=0;fontColor=#666666;align=left;spacingLeft=3;strokeColor=#999999;" vertex="1" parent="1">
          <mxGeometry x="330" y="201" width="116" height="18" as="geometry" />
        </mxCell>
        <mxCell id="9wcVYEtqLnW9-rk7Md1K-5" value="Pendlerpauschale" style="strokeWidth=1;shadow=0;dashed=0;align=left;html=1;shape=mxgraph.mockup.forms.anchor;align=right;spacingRight=2;fontColor=#666666;" vertex="1" parent="1">
          <mxGeometry x="70" y="315" width="50" height="18" as="geometry" />
        </mxCell>
        <mxCell id="DoLtlblg7k8J_3llBcIC-1" value="Brutto Netto Rechner" style="text;html=1;strokeColor=none;fillColor=none;align=center;verticalAlign=middle;whiteSpace=wrap;rounded=0;fontSize=19;" vertex="1" parent="1">
          <mxGeometry x="10" y="130" width="200" height="30" as="geometry" />
        </mxCell>
        <mxCell id="DoLtlblg7k8J_3llBcIC-3" value="monatlich" style="html=1;shadow=0;dashed=0;shape=mxgraph.bootstrap.rrect;rSize=5;strokeColor=#0066CC;strokeWidth=1;fillColor=#FFFFFF;whiteSpace=wrap;align=center;verticalAlign=middle;fontStyle=0;fontSize=14;spacingRight=20;" vertex="1" parent="1">
          <mxGeometry x="156" y="201" width="160" height="18" as="geometry" />
        </mxCell>
        <mxCell id="DoLtlblg7k8J_3llBcIC-4" value="" style="shape=triangle;direction=south;fillColor=#000000;strokeColor=none;perimeter=none;fontSize=19;" vertex="1" parent="DoLtlblg7k8J_3llBcIC-3">
          <mxGeometry x="1" y="0.5" width="10" height="5" relative="1" as="geometry">
            <mxPoint x="-17" y="-2.5" as="offset" />
          </mxGeometry>
        </mxCell>
        <mxCell id="DoLtlblg7k8J_3llBcIC-5" value="&amp;nbsp;â‚¬" style="strokeWidth=1;shadow=0;dashed=0;align=center;html=1;shape=mxgraph.mockup.forms.anchor;align=right;spacingRight=2;fontColor=#666666;" vertex="1" parent="1">
          <mxGeometry x="456" y="201" width="10" height="18" as="geometry" />
        </mxCell>
        <mxCell id="DoLtlblg7k8J_3llBcIC-6" value="0" style="strokeWidth=1;shadow=0;dashed=0;align=right;html=1;shape=mxgraph.mockup.forms.rrect;fillColor=#ffffff;rSize=0;fontColor=#666666;align=left;spacingLeft=3;strokeColor=#999999;" vertex="1" parent="1">
          <mxGeometry x="156" y="281" width="160" height="18" as="geometry" />
        </mxCell>
        <mxCell id="DoLtlblg7k8J_3llBcIC-7" value="klein" style="html=1;shadow=0;dashed=0;shape=mxgraph.bootstrap.rrect;rSize=5;strokeColor=#0066CC;strokeWidth=1;fillColor=#FFFFFF;whiteSpace=wrap;align=center;verticalAlign=middle;fontStyle=0;fontSize=14;spacingRight=20;" vertex="1" parent="1">
          <mxGeometry x="156" y="316" width="160" height="18" as="geometry" />
        </mxCell>
        <mxCell id="DoLtlblg7k8J_3llBcIC-8" value="" style="shape=triangle;direction=south;fillColor=#000000;strokeColor=none;perimeter=none;fontSize=19;" vertex="1" parent="DoLtlblg7k8J_3llBcIC-7">
          <mxGeometry x="1" y="0.5" width="10" height="5" relative="1" as="geometry">
            <mxPoint x="-17" y="-2.5" as="offset" />
          </mxGeometry>
        </mxCell>
        <mxCell id="DoLtlblg7k8J_3llBcIC-9" value="0,00" style="strokeWidth=1;shadow=0;dashed=0;align=right;html=1;shape=mxgraph.mockup.forms.rrect;fillColor=#ffffff;rSize=0;fontColor=#666666;align=left;spacingLeft=3;strokeColor=#999999;" vertex="1" parent="1">
          <mxGeometry x="346" y="316" width="90" height="18" as="geometry" />
        </mxCell>
        <mxCell id="DoLtlblg7k8J_3llBcIC-10" value="km" style="strokeWidth=1;shadow=0;dashed=0;align=center;html=1;shape=mxgraph.mockup.forms.anchor;align=right;spacingRight=2;fontColor=#666666;" vertex="1" parent="1">
          <mxGeometry x="456" y="316" width="10" height="18" as="geometry" />
        </mxCell>
        <mxCell id="DoLtlblg7k8J_3llBcIC-11" value="Beitragsgruppe" style="strokeWidth=1;shadow=0;dashed=0;align=left;html=1;shape=mxgraph.mockup.forms.anchor;align=right;spacingRight=2;fontColor=#666666;" vertex="1" parent="1">
          <mxGeometry x="18" y="240" width="90" height="18" as="geometry" />
        </mxCell>
        <mxCell id="DoLtlblg7k8J_3llBcIC-13" value="Arbeitnehmer" style="html=1;shadow=0;dashed=0;shape=mxgraph.bootstrap.rrect;rSize=5;strokeColor=#0066CC;strokeWidth=1;fillColor=#FFFFFF;whiteSpace=wrap;align=center;verticalAlign=middle;fontStyle=0;fontSize=14;spacingRight=20;" vertex="1" parent="1">
          <mxGeometry x="156" y="241" width="310" height="18" as="geometry" />
        </mxCell>
        <mxCell id="DoLtlblg7k8J_3llBcIC-14" value="" style="shape=triangle;direction=south;fillColor=#000000;strokeColor=none;perimeter=none;fontSize=19;" vertex="1" parent="DoLtlblg7k8J_3llBcIC-13">
          <mxGeometry x="1" y="0.5" width="10" height="5" relative="1" as="geometry">
            <mxPoint x="-17" y="-2.5" as="offset" />
          </mxGeometry>
        </mxCell>
        <mxCell id="DoLtlblg7k8J_3llBcIC-22" value="Option 1" style="strokeWidth=1;shadow=0;dashed=0;align=center;html=1;shape=mxgraph.mockup.forms.rrect;rSize=0;fillColor=#eeeeee;strokeColor=#999999;align=left;spacingLeft=4;fontSize=17;fontColor=#FFFFFF;labelPosition=right;gradientColor=#FFFFFF;" vertex="1" parent="1">
          <mxGeometry x="346" y="281" width="15" height="15" as="geometry" />
        </mxCell>
        <mxCell id="DoLtlblg7k8J_3llBcIC-23" value="AVAB / AEAB" style="strokeWidth=1;shadow=0;dashed=0;align=center;html=1;shape=mxgraph.mockup.forms.anchor;align=right;spacingRight=2;fontColor=#666666;" vertex="1" parent="1">
          <mxGeometry x="446" y="281" width="10" height="18" as="geometry" />
        </mxCell>
        <mxCell id="DoLtlblg7k8J_3llBcIC-24" value="&lt;font style=&quot;font-size: 11px&quot;&gt;berechnen&lt;/font&gt;" style="html=1;shadow=0;dashed=0;shape=mxgraph.bootstrap.rrect;rSize=5;strokeColor=none;strokeWidth=1;fillColor=#0085FC;fontColor=#FFFFFF;whiteSpace=wrap;align=center;verticalAlign=middle;spacingLeft=0;fontStyle=0;fontSize=16;spacing=5;" vertex="1" parent="1">
          <mxGeometry x="160" y="350" width="310" height="20" as="geometry" />
        </mxCell>
        <mxCell id="DoLtlblg7k8J_3llBcIC-25" value="" style="endArrow=none;html=1;rounded=0;fontSize=19;fontColor=#FFFFFF;fillColor=#dae8fc;strokeColor=#6c8ebf;" edge="1" parent="1">
          <mxGeometry width="50" height="50" relative="1" as="geometry">
            <mxPoint x="136" y="340" as="sourcePoint" />
            <mxPoint x="136" y="201" as="targetPoint" />
          </mxGeometry>
        </mxCell>
        <mxCell id="DoLtlblg7k8J_3llBcIC-27" value="Brutto" style="strokeWidth=1;shadow=0;dashed=0;align=left;html=1;shape=mxgraph.mockup.forms.anchor;align=right;spacingRight=2;fontColor=#666666;" vertex="1" parent="1">
          <mxGeometry x="40" y="450" width="40" height="18" as="geometry" />
        </mxCell>
        <mxCell id="DoLtlblg7k8J_3llBcIC-28" value="SV" style="strokeWidth=1;shadow=0;dashed=0;align=left;html=1;shape=mxgraph.mockup.forms.anchor;align=right;spacingRight=2;fontColor=#666666;" vertex="1" parent="1">
          <mxGeometry x="29" y="490" width="40" height="22" as="geometry" />
        </mxCell>
        <mxCell id="DoLtlblg7k8J_3llBcIC-29" value="LSt" style="strokeWidth=1;shadow=0;dashed=0;align=left;html=1;shape=mxgraph.mockup.forms.anchor;align=right;spacingRight=2;fontColor=#666666;" vertex="1" parent="1">
          <mxGeometry x="30" y="530" width="40" height="18" as="geometry" />
        </mxCell>
        <mxCell id="DoLtlblg7k8J_3llBcIC-30" value="Netto" style="strokeWidth=1;shadow=0;dashed=0;align=left;html=1;shape=mxgraph.mockup.forms.anchor;align=right;spacingRight=2;fontColor=#666666;" vertex="1" parent="1">
          <mxGeometry x="40" y="572" width="40" height="18" as="geometry" />
        </mxCell>
        <mxCell id="DoLtlblg7k8J_3llBcIC-31" value="Monatlich" style="strokeWidth=1;shadow=0;dashed=0;align=left;html=1;shape=mxgraph.mockup.forms.anchor;align=right;spacingRight=2;fontColor=#666666;" vertex="1" parent="1">
          <mxGeometry x="180" y="410" width="40" height="18" as="geometry" />
        </mxCell>
        <mxCell id="DoLtlblg7k8J_3llBcIC-32" value="13. Bezug" style="strokeWidth=1;shadow=0;dashed=0;align=left;html=1;shape=mxgraph.mockup.forms.anchor;align=right;spacingRight=2;fontColor=#666666;" vertex="1" parent="1">
          <mxGeometry x="271" y="410" width="40" height="18" as="geometry" />
        </mxCell>
        <mxCell id="DoLtlblg7k8J_3llBcIC-33" value="14. Bezug" style="strokeWidth=1;shadow=0;dashed=0;align=left;html=1;shape=mxgraph.mockup.forms.anchor;align=right;spacingRight=2;fontColor=#666666;" vertex="1" parent="1">
          <mxGeometry x="364" y="410" width="40" height="18" as="geometry" />
        </mxCell>
        <mxCell id="DoLtlblg7k8J_3llBcIC-34" value="JÃ¤hrlich" style="strokeWidth=1;shadow=0;dashed=0;align=left;html=1;shape=mxgraph.mockup.forms.anchor;align=right;spacingRight=2;fontColor=#666666;" vertex="1" parent="1">
          <mxGeometry x="456" y="410" width="40" height="18" as="geometry" />
        </mxCell>
        <mxCell id="DoLtlblg7k8J_3llBcIC-35" value="" style="endArrow=none;html=1;rounded=0;fontSize=19;fontColor=#FFFFFF;fillColor=#dae8fc;strokeColor=#6c8ebf;" edge="1" parent="1">
          <mxGeometry width="50" height="50" relative="1" as="geometry">
            <mxPoint x="146" y="600" as="sourcePoint" />
            <mxPoint x="146" y="410" as="targetPoint" />
          </mxGeometry>
        </mxCell>
        <mxCell id="DoLtlblg7k8J_3llBcIC-36" value="" style="endArrow=none;html=1;rounded=0;fontSize=19;fontColor=#FFFFFF;fillColor=#dae8fc;strokeColor=#6c8ebf;" edge="1" parent="1">
          <mxGeometry width="50" height="50" relative="1" as="geometry">
            <mxPoint x="510" y="440" as="sourcePoint" />
            <mxPoint x="29" y="440" as="targetPoint" />
          </mxGeometry>
        </mxCell>
        <mxCell id="DoLtlblg7k8J_3llBcIC-37" value="" style="endArrow=none;html=1;rounded=0;fontSize=19;fontColor=#FFFFFF;fillColor=#dae8fc;strokeColor=#BFBFBF;" edge="1" parent="1">
          <mxGeometry width="50" height="50" relative="1" as="geometry">
            <mxPoint x="239.5" y="600" as="sourcePoint" />
            <mxPoint x="239.5" y="410" as="targetPoint" />
          </mxGeometry>
        </mxCell>
        <mxCell id="DoLtlblg7k8J_3llBcIC-38" value="" style="endArrow=none;html=1;rounded=0;fontSize=19;fontColor=#FFFFFF;fillColor=#dae8fc;strokeColor=#BFBFBF;" edge="1" parent="1">
          <mxGeometry width="50" height="50" relative="1" as="geometry">
            <mxPoint x="330" y="600" as="sourcePoint" />
            <mxPoint x="330" y="410" as="targetPoint" />
          </mxGeometry>
        </mxCell>
        <mxCell id="DoLtlblg7k8J_3llBcIC-39" value="" style="endArrow=none;html=1;rounded=0;fontSize=19;fontColor=#FFFFFF;fillColor=#dae8fc;strokeColor=#BFBFBF;" edge="1" parent="1">
          <mxGeometry width="50" height="50" relative="1" as="geometry">
            <mxPoint x="426" y="600" as="sourcePoint" />
            <mxPoint x="426" y="406" as="targetPoint" />
          </mxGeometry>
        </mxCell>
        <mxCell id="DoLtlblg7k8J_3llBcIC-40" value="" style="endArrow=none;html=1;rounded=0;fontSize=19;fontColor=#FFFFFF;fillColor=#f5f5f5;strokeColor=#D4D4D4;" edge="1" parent="1">
          <mxGeometry width="50" height="50" relative="1" as="geometry">
            <mxPoint x="440" y="480" as="sourcePoint" />
            <mxPoint x="29" y="480" as="targetPoint" />
          </mxGeometry>
        </mxCell>
        <mxCell id="DoLtlblg7k8J_3llBcIC-41" value="" style="endArrow=none;html=1;rounded=0;fontSize=19;fontColor=#FFFFFF;fillColor=#dae8fc;strokeColor=#BFBFBF;" edge="1" parent="1">
          <mxGeometry width="50" height="50" relative="1" as="geometry">
            <mxPoint x="510" y="480" as="sourcePoint" />
            <mxPoint x="29" y="480" as="targetPoint" />
          </mxGeometry>
        </mxCell>
        <mxCell id="DoLtlblg7k8J_3llBcIC-42" value="" style="endArrow=none;html=1;rounded=0;fontSize=19;fontColor=#FFFFFF;fillColor=#dae8fc;strokeColor=#BFBFBF;" edge="1" parent="1">
          <mxGeometry width="50" height="50" relative="1" as="geometry">
            <mxPoint x="510" y="520" as="sourcePoint" />
            <mxPoint x="29" y="520" as="targetPoint" />
          </mxGeometry>
        </mxCell>
        <mxCell id="DoLtlblg7k8J_3llBcIC-43" value="" style="endArrow=none;html=1;rounded=0;fontSize=19;fontColor=#FFFFFF;fillColor=#dae8fc;strokeColor=#BFBFBF;" edge="1" parent="1">
          <mxGeometry width="50" height="50" relative="1" as="geometry">
            <mxPoint x="510" y="560" as="sourcePoint" />
            <mxPoint x="29" y="560" as="targetPoint" />
          </mxGeometry>
        </mxCell>
        <mxCell id="DoLtlblg7k8J_3llBcIC-44" value="" style="shape=image;html=1;verticalAlign=top;verticalLabelPosition=bottom;labelBackgroundColor=#ffffff;imageAspect=0;aspect=fixed;image=https://cdn1.iconfinder.com/data/icons/ui-essential-17/32/UI_Essential_Outline_1_essential-app-ui-question-help-128.png;fontSize=11;fontColor=#FFFFFF;strokeColor=#0066CC;fillColor=#FFFFFF;gradientColor=#FFFFFF;" vertex="1" parent="1">
          <mxGeometry x="456" y="135" width="20" height="20" as="geometry" />
        </mxCell>
      </root>
    </mxGraphModel>
  </diagram>
  <diagram id="LcWD8KKWZGWddXPpKwEa" name="Player 2">
    <mxGraphModel dx="830" dy="620" grid="1" gridSize="10" guides="1" tooltips="1" connect="1" arrows="1" fold="1" page="1" pageScale="1" pageWidth="827" pageHeight="1169" math="0" shadow="0">
      <root>
        <mxCell id="e0ayLPcoWOL_uD6bi7Ww-0" />
        <mxCell id="e0ayLPcoWOL_uD6bi7Ww-1" parent="e0ayLPcoWOL_uD6bi7Ww-0" />
      </root>
    </mxGraphModel>
  </diagram>
  <diagram id="m4bNsPhG8jv0dVMjM0M2" name="Player 3">
    <mxGraphModel dx="830" dy="620" grid="1" gridSize="10" guides="1" tooltips="1" connect="1" arrows="1" fold="1" page="1" pageScale="1" pageWidth="827" pageHeight="1169" math="0" shadow="0">
      <root>
        <mxCell id="GWzeu4ogN81BlrtRWsrX-0" />
        <mxCell id="GWzeu4ogN81BlrtRWsrX-1" parent="GWzeu4ogN81BlrtRWsrX-0" />
      </root>
    </mxGraphModel>
  </diagram>
</mxfile>
